<svg xmlns="http://www.w3.org/2000/svg" xmlns:xlink="http://www.w3.org/1999/xlink" contentStyleType="text/css" data-diagram-type="DESCRIPTION" height="2127px" preserveAspectRatio="none" style="width:2050px;height:2127px;background:#FFFFFF;" version="1.1" viewBox="0 0 2050 2127" width="2050px" zoomAndPan="magnify"><defs/><g><!--cluster CareSync--><g class="cluster" data-qualified-name="CareSync" data-source-line="9" id="ent0006"><rect fill="none" height="1913" rx="2.5" ry="2.5" style="stroke:#181818;stroke-width:1;" width="1769.61" x="274.82" y="16.8"/><text fill="#000000" font-family="sans-serif" font-size="14" font-weight="bold" lengthAdjust="spacing" textLength="73.5957" x="1122.8271" y="31.7951">CareSync</text></g><!--cluster Authentication & Access (MVP1)--><g class="cluster" data-qualified-name="CareSync.Authentication . Access .MVP1." data-source-line="11" id="ent0007"><rect fill="none" height="274" rx="2.5" ry="2.5" style="stroke:#181818;stroke-width:1;" width="619.3" x="356.75" y="59.8"/><text fill="#000000" font-family="sans-serif" font-size="14" font-weight="bold" lengthAdjust="spacing" textLength="255.2266" x="538.7867" y="74.7951">Authentication &amp; Access (MVP1)</text></g><!--cluster Daily Tracking & Wellness Score (MVP1)--><g class="cluster" data-qualified-name="CareSync.Daily Tracking . Wellness Score .MVP1." data-source-line="20" id="ent0013"><rect fill="none" height="529" rx="2.5" ry="2.5" style="stroke:#181818;stroke-width:1;" width="988.24" x="329.85" y="1011.8"/><text fill="#000000" font-family="sans-serif" font-size="14" font-weight="bold" lengthAdjust="spacing" textLength="317.2969" x="665.3216" y="1026.7951">Daily Tracking &amp; Wellness Score (MVP1)</text></g><!--cluster Analytics Dashboard (MVP2)--><g class="cluster" data-qualified-name="CareSync.Analytics Dashboard .MVP2." data-source-line="35" id="ent0025"><rect fill="none" height="341" rx="2.5" ry="2.5" style="stroke:#181818;stroke-width:1;" width="648.68" x="328.67" y="1564.8"/><text fill="#000000" font-family="sans-serif" font-size="14" font-weight="bold" lengthAdjust="spacing" textLength="224.9912" x="540.5144" y="1579.7951">Analytics Dashboard (MVP2)</text></g><!--cluster Insight Engine (MVP3)--><g class="cluster" data-qualified-name="CareSync.Insight Engine .MVP3." data-source-line="43" id="ent0031"><rect fill="none" height="109" rx="2.5" ry="2.5" style="stroke:#181818;stroke-width:1;" width="1721.61" x="298.82" y="878.8"/><text fill="#000000" font-family="sans-serif" font-size="14" font-weight="bold" lengthAdjust="spacing" textLength="176.1143" x="1071.5679" y="893.7951">Insight Engine (MVP3)</text></g><!--cluster Data Ownership & GDPR--><g class="cluster" data-qualified-name="CareSync.Data Ownership . GDPR" data-source-line="52" id="ent0037"><rect fill="none" height="180" rx="2.5" ry="2.5" style="stroke:#181818;stroke-width:1;" width="254.86" x="318.72" y="357.8"/><text fill="#000000" font-family="sans-serif" font-size="14" font-weight="bold" lengthAdjust="spacing" textLength="192.5137" x="349.8932" y="372.7951">Data Ownership &amp; GDPR</text></g><!--cluster PWA--><g class="cluster" data-qualified-name="CareSync.PWA" data-source-line="57" id="ent0040"><rect fill="none" height="87" rx="2.5" ry="2.5" style="stroke:#181818;stroke-width:1;" width="191.08" x="350.61" y="561.8"/><text fill="#000000" font-family="sans-serif" font-size="14" font-weight="bold" lengthAdjust="spacing" textLength="36.5381" x="427.881" y="576.7951">PWA</text></g><!--cluster Internationalisation (i18n-ready)--><g class="cluster" data-qualified-name="CareSync.Internationalisation .i18n-ready." data-source-line="61" id="ent0042"><rect fill="none" height="182" rx="2.5" ry="2.5" style="stroke:#181818;stroke-width:1;" width="274.76" x="309.27" y="672.8"/><text fill="#000000" font-family="sans-serif" font-size="14" font-weight="bold" lengthAdjust="spacing" textLength="259.3828" x="316.9586" y="687.7951">Internationalisation (i18n-ready)</text></g><!--entity UC_Register--><g class="entity" data-qualified-name="CareSync.Authentication . Access .MVP1..UC_Register" data-source-line="12" id="ent0008"><ellipse cx="446.1532" cy="141.7957" fill="#F1F1F1" rx="73.4032" ry="24.4357" style="stroke:#181818;stroke-width:0.5;"/><text fill="#000000" font-family="sans-serif" font-size="14" lengthAdjust="spacing" textLength="107.0508" x="392.6278" y="140.6678">Create account</text><text fill="#000000" font-family="sans-serif" font-size="14" lengthAdjust="spacing" textLength="69.1934" x="411.5565" y="156.9646">(Register)</text></g><!--entity UC_Login--><g class="entity" data-qualified-name="CareSync.Authentication . Access .MVP1..UC_Login" data-source-line="13" id="ent0009"><ellipse cx="446.1472" cy="215.8036" fill="#F1F1F1" rx="33.0272" ry="14.5236" style="stroke:#181818;stroke-width:0.5;"/><text fill="#000000" font-family="sans-serif" font-size="14" lengthAdjust="spacing" textLength="42.4648" x="424.9148" y="220.4521">Log in</text></g><!--entity UC_Logout--><g class="entity" data-qualified-name="CareSync.Authentication . Access .MVP1..UC_Logout" data-source-line="14" id="ent0010"><ellipse cx="446.1549" cy="302.8036" fill="#F1F1F1" rx="40.2149" ry="14.5236" style="stroke:#181818;stroke-width:0.5;"/><text fill="#000000" font-family="sans-serif" font-size="14" lengthAdjust="spacing" textLength="52.6299" x="419.84" y="307.4521">Log out</text></g><!--entity UC_ValidateCred--><g class="entity" data-qualified-name="CareSync.Authentication . Access .MVP1..UC_ValidateCred" data-source-line="16" id="ent0011"><ellipse cx="848.9126" cy="254.7985" fill="#F1F1F1" rx="83.7926" ry="19.1585" style="stroke:#181818;stroke-width:0.5;"/><text fill="#000000" font-family="sans-serif" font-size="14" lengthAdjust="spacing" textLength="139.5352" x="779.145" y="259.447">Validate credentials</text></g><!--entity UC_SecureAuth--><g class="entity" data-qualified-name="CareSync.Authentication . Access .MVP1..UC_SecureAuth" data-source-line="17" id="ent0012"><ellipse cx="848.9078" cy="144.799" fill="#F1F1F1" rx="111.1378" ry="25.789" style="stroke:#181818;stroke-width:0.5;"/><text fill="#000000" font-family="sans-serif" font-size="14" lengthAdjust="spacing" textLength="154.6631" x="771.5763" y="141.6663">Secure authentication</text><text fill="#000000" font-family="sans-serif" font-size="14" lengthAdjust="spacing" textLength="147.5264" x="775.1447" y="157.9632">(issue token/session)</text></g><!--entity UC_Checkin--><g class="entity" data-qualified-name="CareSync.Daily Tracking . Wellness Score .MVP1..UC_Checkin" data-source-line="21" id="ent0014"><ellipse cx="848.9108" cy="1314.8021" fill="#F1F1F1" rx="103.2408" ry="24.6521" style="stroke:#181818;stroke-width:0.5;"/><text fill="#000000" font-family="sans-serif" font-size="14" lengthAdjust="spacing" textLength="150.8965" x="773.4625" y="1313.3433">Submit daily check-in</text><text fill="#000000" font-family="sans-serif" font-size="14" lengthAdjust="spacing" textLength="106.5928" x="795.6144" y="1329.6402">(&lt; 30 seconds)</text></g><!--entity UC_Note--><g class="entity" data-qualified-name="CareSync.Daily Tracking . Wellness Score .MVP1..UC_Note" data-source-line="22" id="ent0015"><ellipse cx="446.1498" cy="1314.796" fill="#F1F1F1" rx="91.3798" ry="20.676" style="stroke:#181818;stroke-width:0.5;"/><text fill="#000000" font-family="sans-serif" font-size="14" lengthAdjust="spacing" textLength="156.8574" x="367.7211" y="1319.4444">Add optional text note</text></g><!--entity UC_ViewScore--><g class="entity" data-qualified-name="CareSync.Daily Tracking . Wellness Score .MVP1..UC_ViewScore" data-source-line="23" id="ent0016"><ellipse cx="446.1516" cy="1065.8023" fill="#F1F1F1" rx="84.1116" ry="19.2223" style="stroke:#181818;stroke-width:0.5;"/><text fill="#000000" font-family="sans-serif" font-size="14" lengthAdjust="spacing" textLength="140.2734" x="376.0148" y="1070.4507">View wellness score</text></g><!--entity UC_History--><g class="entity" data-qualified-name="CareSync.Daily Tracking . Wellness Score .MVP1..UC_History" data-source-line="24" id="ent0017"><ellipse cx="446.1508" cy="1143.7996" fill="#F1F1F1" rx="100.3008" ry="24.2296" style="stroke:#181818;stroke-width:0.5;"/><text fill="#000000" font-family="sans-serif" font-size="14" lengthAdjust="spacing" textLength="149.3857" x="371.4579" y="1142.991">View check-in history</text><text fill="#000000" font-family="sans-serif" font-size="14" lengthAdjust="spacing" textLength="87.0283" x="402.6366" y="1159.2879">(last 7 days)</text></g><!--entity UC_Mood--><g class="entity" data-qualified-name="CareSync.Daily Tracking . Wellness Score .MVP1..UC_Mood" data-source-line="26" id="ent0018"><ellipse cx="1203.8678" cy="1210.7956" fill="#F1F1F1" rx="67.5278" ry="15.9056" style="stroke:#181818;stroke-width:0.5;"/><text fill="#000000" font-family="sans-serif" font-size="14" lengthAdjust="spacing" textLength="100.0781" x="1153.8287" y="1215.444">Capture mood</text></g><!--entity UC_Energy--><g class="entity" data-qualified-name="CareSync.Daily Tracking . Wellness Score .MVP1..UC_Energy" data-source-line="27" id="ent0019"><ellipse cx="1203.8705" cy="1139.8041" fill="#F1F1F1" rx="87.1205" ry="19.8241" style="stroke:#181818;stroke-width:0.5;"/><text fill="#000000" font-family="sans-serif" font-size="14" lengthAdjust="spacing" textLength="147.1914" x="1130.2748" y="1144.4525">Capture energy level</text></g><!--entity UC_Stress--><g class="entity" data-qualified-name="CareSync.Daily Tracking . Wellness Score .MVP1..UC_Stress" data-source-line="28" id="ent0020"><ellipse cx="1203.872" cy="1065.8004" fill="#F1F1F1" rx="83.952" ry="19.1904" style="stroke:#181818;stroke-width:0.5;"/><text fill="#000000" font-family="sans-serif" font-size="14" lengthAdjust="spacing" textLength="139.9043" x="1133.9199" y="1070.4488">Capture stress level</text></g><!--entity UC_Sleep--><g class="entity" data-qualified-name="CareSync.Daily Tracking . Wellness Score .MVP1..UC_Sleep" data-source-line="29" id="ent0021"><ellipse cx="1203.8692" cy="1504.7958" fill="#F1F1F1" rx="88.3792" ry="20.0758" style="stroke:#181818;stroke-width:0.5;"/><text fill="#000000" font-family="sans-serif" font-size="14" lengthAdjust="spacing" textLength="150.0625" x="1128.838" y="1509.4443">Capture sleep quality</text></g><!--entity UC_ValidateCheckin--><g class="entity" data-qualified-name="CareSync.Daily Tracking . Wellness Score .MVP1..UC_ValidateCheckin" data-source-line="30" id="ent0022"><ellipse cx="1203.8682" cy="1428.7956" fill="#F1F1F1" rx="91.3282" ry="20.6656" style="stroke:#181818;stroke-width:0.5;"/><text fill="#000000" font-family="sans-serif" font-size="14" lengthAdjust="spacing" textLength="156.7412" x="1125.4976" y="1433.4441">Validate check-in data</text></g><!--entity UC_CalcScore--><g class="entity" data-qualified-name="CareSync.Daily Tracking . Wellness Score .MVP1..UC_CalcScore" data-source-line="31" id="ent0023"><ellipse cx="1203.8709" cy="1350.8042" fill="#F1F1F1" rx="98.2209" ry="22.0442" style="stroke:#181818;stroke-width:0.5;"/><text fill="#000000" font-family="sans-serif" font-size="14" lengthAdjust="spacing" textLength="172.1289" x="1117.8064" y="1355.4526">Calculate wellness score</text></g><!--entity UC_SaveCheckin--><g class="entity" data-qualified-name="CareSync.Daily Tracking . Wellness Score .MVP1..UC_SaveCheckin" data-source-line="32" id="ent0024"><ellipse cx="1203.8683" cy="1277.7957" fill="#F1F1F1" rx="66.5783" ry="15.7157" style="stroke:#181818;stroke-width:0.5;"/><text fill="#000000" font-family="sans-serif" font-size="14" lengthAdjust="spacing" textLength="97.6172" x="1155.0597" y="1282.4441">Save check-in</text></g><!--entity UC_Dashboard--><g class="entity" data-qualified-name="CareSync.Analytics Dashboard .MVP2..UC_Dashboard" data-source-line="36" id="ent0026"><ellipse cx="446.1497" cy="1703.7959" fill="#F1F1F1" rx="101.4797" ry="22.6959" style="stroke:#181818;stroke-width:0.5;"/><text fill="#000000" font-family="sans-serif" font-size="14" lengthAdjust="spacing" textLength="179.3135" x="356.493" y="1708.4444">View analytics dashboard</text></g><!--entity UC_Trends--><g class="entity" data-qualified-name="CareSync.Analytics Dashboard .MVP2..UC_Trends" data-source-line="37" id="ent0027"><ellipse cx="848.9084" cy="1864.7965" fill="#F1F1F1" rx="105.3584" ry="25.1265" style="stroke:#181818;stroke-width:0.5;"/><text fill="#000000" font-family="sans-serif" font-size="14" lengthAdjust="spacing" textLength="123.7373" x="787.0398" y="1859.9661">View trend charts</text><text fill="#000000" font-family="sans-serif" font-size="14" lengthAdjust="spacing" textLength="150.7803" x="773.5183" y="1876.263">(mood/energy/stress)</text></g><!--entity UC_Averages--><g class="entity" data-qualified-name="CareSync.Analytics Dashboard .MVP2..UC_Averages" data-source-line="38" id="ent0028"><ellipse cx="848.9078" cy="1783.7996" fill="#F1F1F1" rx="90.9978" ry="20.5996" style="stroke:#181818;stroke-width:0.5;"/><text fill="#000000" font-family="sans-serif" font-size="14" lengthAdjust="spacing" textLength="155.9961" x="770.9098" y="1788.448">View weekly averages</text></g><!--entity UC_Correlations--><g class="entity" data-qualified-name="CareSync.Analytics Dashboard .MVP2..UC_Correlations" data-source-line="39" id="ent0029"><ellipse cx="848.907" cy="1703.7974" fill="#F1F1F1" rx="112.437" ry="24.8874" style="stroke:#181818;stroke-width:0.5;"/><text fill="#000000" font-family="sans-serif" font-size="14" lengthAdjust="spacing" textLength="171.6094" x="763.1023" y="1703.009">View simple correlations</text><text fill="#000000" font-family="sans-serif" font-size="14" lengthAdjust="spacing" textLength="108.5068" x="794.6536" y="1719.3058">(sleep &#8596; mood)</text></g><!--entity UC_Explain--><g class="entity" data-qualified-name="CareSync.Analytics Dashboard .MVP2..UC_Explain" data-source-line="40" id="ent0030"><ellipse cx="848.9144" cy="1621.8049" fill="#F1F1F1" rx="97.6744" ry="21.9349" style="stroke:#181818;stroke-width:0.5;"/><text fill="#000000" font-family="sans-serif" font-size="14" lengthAdjust="spacing" textLength="170.9189" x="763.455" y="1626.4533">Read chart explanations</text></g><!--entity UC_ViewInsights--><g class="entity" data-qualified-name="CareSync.Insight Engine .MVP3..UC_ViewInsights" data-source-line="44" id="ent0032"><ellipse cx="848.9146" cy="936.8049" fill="#F1F1F1" rx="64.6246" ry="15.3249" style="stroke:#181818;stroke-width:0.5;"/><text fill="#000000" font-family="sans-serif" font-size="14" lengthAdjust="spacing" textLength="92.4697" x="802.6797" y="941.4534">View insights</text></g><!--entity UC_Reco--><g class="entity" data-qualified-name="CareSync.Insight Engine .MVP3..UC_Reco" data-source-line="45" id="ent0033"><ellipse cx="446.1483" cy="942.7957" fill="#F1F1F1" rx="131.3283" ry="28.6657" style="stroke:#181818;stroke-width:0.5;"/><text fill="#000000" font-family="sans-serif" font-size="14" lengthAdjust="spacing" textLength="235.6758" x="328.3104" y="945.4291">Receive gentle recommendations</text><text fill="#000000" font-family="sans-serif" font-size="14" lengthAdjust="spacing" textLength="124.7422" x="383.7772" y="961.726">(non prescriptive)</text></g><!--entity UC_Rules--><g class="entity" data-qualified-name="CareSync.Insight Engine .MVP3..UC_Rules" data-source-line="47" id="ent0034"><ellipse cx="1561.649" cy="939.8038" fill="#F1F1F1" rx="117.269" ry="25.8538" style="stroke:#181818;stroke-width:0.5;"/><text fill="#000000" font-family="sans-serif" font-size="14" lengthAdjust="spacing" textLength="196.499" x="1463.3995" y="940.9312">Apply behavior rules engine</text><text fill="#000000" font-family="sans-serif" font-size="14" lengthAdjust="spacing" textLength="91.9092" x="1515.6944" y="957.228">(explainable)</text></g><!--entity UC_WeakSignals--><g class="entity" data-qualified-name="CareSync.Insight Engine .MVP3..UC_WeakSignals" data-source-line="48" id="ent0035"><ellipse cx="1904.1717" cy="938.8046" fill="#F1F1F1" rx="100.2517" ry="25.4746" style="stroke:#181818;stroke-width:0.5;"/><text fill="#000000" font-family="sans-serif" font-size="14" lengthAdjust="spacing" textLength="141.0391" x="1833.6522" y="936.125">Detect weak signals</text><text fill="#000000" font-family="sans-serif" font-size="14" lengthAdjust="spacing" textLength="126.041" x="1841.1512" y="952.4219">(fatigue/overload)</text></g><!--entity UC_GenerateInsights--><g class="entity" data-qualified-name="CareSync.Insight Engine .MVP3..UC_GenerateInsights" data-source-line="49" id="ent0036"><ellipse cx="1203.8659" cy="939.8032" fill="#F1F1F1" rx="115.5159" ry="25.5032" style="stroke:#181818;stroke-width:0.5;"/><text fill="#000000" font-family="sans-serif" font-size="14" lengthAdjust="spacing" textLength="209.7607" x="1098.9855" y="944.4516">Generate explainable insights</text></g><!--entity UC_Export--><g class="entity" data-qualified-name="CareSync.Data Ownership . GDPR.UC_Export" data-source-line="53" id="ent0038"><ellipse cx="446.1467" cy="414.8013" fill="#F1F1F1" rx="98.6567" ry="22.1313" style="stroke:#181818;stroke-width:0.5;"/><text fill="#000000" font-family="sans-serif" font-size="14" lengthAdjust="spacing" textLength="173.0928" x="359.6003" y="419.4498">Export my personal data</text></g><!--entity UC_Delete--><g class="entity" data-qualified-name="CareSync.Data Ownership . GDPR.UC_Delete" data-source-line="54" id="ent0039"><ellipse cx="446.1476" cy="496.7955" fill="#F1F1F1" rx="111.4276" ry="24.6855" style="stroke:#181818;stroke-width:0.5;"/><text fill="#000000" font-family="sans-serif" font-size="14" lengthAdjust="spacing" textLength="173.2637" x="359.5158" y="496.5517">Delete my personal data</text><text fill="#000000" font-family="sans-serif" font-size="14" lengthAdjust="spacing" textLength="93.7754" x="399.2599" y="512.8486">(full deletion)</text></g><!--entity UC_PWA--><g class="entity" data-qualified-name="CareSync.PWA.UC_PWA" data-source-line="58" id="ent0041"><ellipse cx="446.1463" cy="614.7973" fill="#F1F1F1" rx="79.5363" ry="18.3073" style="stroke:#181818;stroke-width:0.5;"/><text fill="#000000" font-family="sans-serif" font-size="14" lengthAdjust="spacing" textLength="129.582" x="381.3553" y="619.4457">Install app as PWA</text></g><!--entity UC_EN--><g class="entity" data-qualified-name="CareSync.Internationalisation .i18n-ready..UC_EN" data-source-line="62" id="ent0043"><ellipse cx="446.1529" cy="814.8037" fill="#F1F1F1" rx="85.8829" ry="23.9137" style="stroke:#181818;stroke-width:0.5;"/><text fill="#000000" font-family="sans-serif" font-size="14" lengthAdjust="spacing" textLength="129.1719" x="381.567" y="814.4935">Use app in English</text><text fill="#000000" font-family="sans-serif" font-size="14" lengthAdjust="spacing" textLength="60.1836" x="416.0611" y="830.7904">(default)</text></g><!--entity UC_Lang--><g class="entity" data-qualified-name="CareSync.Internationalisation .i18n-ready..UC_Lang" data-source-line="63" id="ent0044"><ellipse cx="446.1508" cy="731.7977" fill="#F1F1F1" rx="82.0108" ry="23.8977" style="stroke:#181818;stroke-width:0.5;"/><text fill="#000000" font-family="sans-serif" font-size="14" lengthAdjust="spacing" textLength="123.2314" x="384.5351" y="731.5131">Change language</text><text fill="#000000" font-family="sans-serif" font-size="14" lengthAdjust="spacing" textLength="56.5811" x="417.8603" y="747.8099">(Future)</text></g><!--entity Guest--><g class="entity" data-qualified-name="Guest" data-source-line="4" id="ent0002"><ellipse cx="70.9124" cy="142" fill="#F1F1F1" rx="8" ry="8" style="stroke:#181818;stroke-width:0.5;"/><path d="M70.9124,150 L70.9124,177 M57.9124,158 L83.9124,158 M70.9124,177 L57.9124,192 M70.9124,177 L83.9124,192" fill="none" style="stroke:#181818;stroke-width:0.5;"/><text fill="#000000" font-family="sans-serif" font-size="14" lengthAdjust="spacing" textLength="41.1182" x="43.22" y="206.4951">Guest</text><text fill="#000000" font-family="sans-serif" font-size="14" lengthAdjust="spacing" textLength="55.3848" x="43.22" y="222.792">(Visitor)</text></g><!--entity User--><g class="entity" data-qualified-name="User" data-source-line="5" id="ent0003"><ellipse cx="70.9136" cy="777" fill="#F1F1F1" rx="8" ry="8" style="stroke:#181818;stroke-width:0.5;"/><path d="M70.9136,785 L70.9136,812 M57.9136,793 L83.9136,793 M70.9136,812 L57.9136,827 M70.9136,812 L83.9136,827" fill="none" style="stroke:#181818;stroke-width:0.5;"/><text fill="#000000" font-family="sans-serif" font-size="14" lengthAdjust="spacing" textLength="31.9102" x="15.98" y="841.4951">User</text><text fill="#000000" font-family="sans-serif" font-size="14" lengthAdjust="spacing" textLength="109.8672" x="15.98" y="857.792">(Authenticated)</text></g><!--entity System--><g class="entity" data-qualified-name="System" data-source-line="6" id="ent0004"><ellipse cx="70.9106" cy="14" fill="#F1F1F1" rx="8" ry="8" style="stroke:#181818;stroke-width:0.5;"/><path d="M70.9106,22 L70.9106,49 M57.9106,30 L83.9106,30 M70.9106,49 L57.9106,64 M70.9106,49 L83.9106,64" fill="none" style="stroke:#181818;stroke-width:0.5;"/><text fill="#000000" font-family="sans-serif" font-size="14" lengthAdjust="spacing" textLength="52.2061" x="6" y="78.4951">System</text><text fill="#000000" font-family="sans-serif" font-size="14" lengthAdjust="spacing" textLength="129.8213" x="6" y="94.792">(CareSync Engine)</text></g><!--entity Coach--><g class="entity" data-qualified-name="Coach" data-source-line="7" id="ent0005"><ellipse cx="70.9098" cy="377" fill="#F1F1F1" rx="8" ry="8" style="stroke:#181818;stroke-width:0.5;"/><path d="M70.9098,385 L70.9098,412 M57.9098,393 L83.9098,393 M70.9098,412 L57.9098,427 M70.9098,412 L83.9098,427" fill="none" style="stroke:#181818;stroke-width:0.5;"/><text fill="#000000" font-family="sans-serif" font-size="14" lengthAdjust="spacing" textLength="114.1396" x="13.84" y="441.4951">Coach/Therapist</text><text fill="#000000" font-family="sans-serif" font-size="14" lengthAdjust="spacing" textLength="56.5811" x="13.84" y="457.792">(Future)</text></g><!--link Guest to UC_Register--><g class="link" data-entity-1="ent0002" data-entity-2="ent0008" data-link-type="dependency" data-source-line="68" id="lnk45"><path d="M99.05,177.04 C156.51,171.19 286.0009,158.0077 369.3909,149.5177" fill="none" id="Guest-to-UC_Register" style="stroke:#181818;stroke-width:1;"/><polygon fill="#181818" points="375.36,148.91,366.0011,145.8422,370.3857,149.4164,366.8114,153.801,375.36,148.91" style="stroke:#181818;stroke-width:1;"/></g><!--link Guest to UC_Login--><g class="link" data-entity-1="ent0002" data-entity-2="ent0009" data-link-type="dependency" data-source-line="69" id="lnk46"><path d="M99.05,182.42 C166.49,188.92 335.4177,205.2138 407.4577,212.1638" fill="none" id="Guest-to-UC_Login" style="stroke:#181818;stroke-width:1;"/><polygon fill="#181818" points="413.43,212.74,404.8557,207.8942,408.4531,212.2599,404.0875,215.8573,413.43,212.74" style="stroke:#181818;stroke-width:1;"/></g><!--link User to UC_Logout--><g class="link" data-entity-1="ent0003" data-entity-2="ent0010" data-link-type="dependency" data-source-line="71" id="lnk47"><path d="M80.88,768.32 C101.78,660.98 152.9,403.87 165.82,389.8 C228.88,321.17 339.0671,306.522 399.8071,303.562" fill="none" id="User-to-UC_Logout" style="stroke:#181818;stroke-width:1;"/><polygon fill="#181818" points="405.8,303.27,396.616,299.7128,400.8059,303.5134,397.0054,307.7033,405.8,303.27" style="stroke:#181818;stroke-width:1;"/></g><!--link User to UC_Checkin--><g class="link" data-entity-1="ent0003" data-entity-2="ent0014" data-link-type="dependency" data-source-line="72" id="lnk48"><path d="M73.14,861.53 C78.75,1059.99 104.26,1826.8 165.82,1913.8 C304.86,2110.3 540.37,2120.02 706.48,1945.8 C762.18,1887.38 717.47,1662.25 736.48,1583.8 C759.27,1489.72 807.5363,1391.1852 831.8163,1344.8252" fill="none" id="User-to-UC_Checkin" style="stroke:#181818;stroke-width:1;"/><polygon fill="#181818" points="834.6,1339.51,826.881,1345.627,832.2803,1343.9393,833.9679,1349.3386,834.6,1339.51" style="stroke:#181818;stroke-width:1;"/></g><!--link User to UC_ViewScore--><g class="link" data-entity-1="ent0003" data-entity-2="ent0016" data-link-type="dependency" data-source-line="73" id="lnk49"><path d="M117.08,861.4 C155.26,898.95 212.71,951.32 269.82,987.8 C310.95,1014.08 356.8177,1033.6981 393.3177,1047.4981" fill="none" id="User-to-UC_ViewScore" style="stroke:#181818;stroke-width:1;"/><polygon fill="#181818" points="398.93,1049.62,391.9262,1042.6956,394.2531,1047.8518,389.097,1050.1787,398.93,1049.62" style="stroke:#181818;stroke-width:1;"/></g><!--link User to UC_History--><g class="link" data-entity-1="ent0003" data-entity-2="ent0017" data-link-type="dependency" data-source-line="74" id="lnk50"><path d="M88.64,861.39 C115.37,928.17 174.63,1048.97 269.82,1102.8 C295.94,1117.57 321.2583,1125.7957 350.0383,1131.8457" fill="none" id="User-to-UC_History" style="stroke:#181818;stroke-width:1;"/><polygon fill="#181818" points="355.91,1133.08,347.9254,1127.3141,351.0169,1132.0514,346.2796,1135.143,355.91,1133.08" style="stroke:#181818;stroke-width:1;"/></g><!--link User to UC_Dashboard--><g class="link" data-entity-1="ent0003" data-entity-2="ent0026" data-link-type="dependency" data-source-line="75" id="lnk51"><path d="M75.76,861.59 C87.47,982.35 130.88,1311.09 269.82,1540.8 C306.6,1601.61 367.5794,1650.4482 407.2594,1678.4782" fill="none" id="User-to-UC_Dashboard" style="stroke:#181818;stroke-width:1;"/><polygon fill="#181818" points="412.16,1681.94,407.117,1673.4802,408.0762,1679.0552,402.5012,1680.0144,412.16,1681.94" style="stroke:#181818;stroke-width:1;"/></g><!--link User to UC_ViewInsights--><g class="link" data-entity-1="ent0003" data-entity-2="ent0032" data-link-type="dependency" data-source-line="76" id="lnk52"><path d="M72.42,861.28 C75.64,1052.93 99.09,1777.71 269.82,1905.8 C347.44,1964.03 636.7,1973.23 706.48,1905.8 C776.43,1838.2 693.97,1118.3 736.48,1030.8 C754.28,994.15 788.577,969.4255 815.427,953.8855" fill="none" id="User-to-UC_ViewInsights" style="stroke:#181818;stroke-width:1;"/><polygon fill="#181818" points="820.62,950.88,810.8269,951.9263,816.2925,953.3846,814.8343,958.8503,820.62,950.88" style="stroke:#181818;stroke-width:1;"/></g><!--link User to UC_Export--><g class="link" data-entity-1="ent0003" data-entity-2="ent0038" data-link-type="dependency" data-source-line="77" id="lnk53"><path d="M82.74,768.23 C103.8,689.08 158.35,529.64 269.82,454.8 C294.45,438.27 319.0576,429.6822 347.6676,423.9322" fill="none" id="User-to-UC_Export" style="stroke:#181818;stroke-width:1;"/><polygon fill="#181818" points="353.55,422.75,343.9383,420.6018,348.648,423.7352,345.5146,428.4449,353.55,422.75" style="stroke:#181818;stroke-width:1;"/></g><!--link User to UC_Delete--><g class="link" data-entity-1="ent0003" data-entity-2="ent0039" data-link-type="dependency" data-source-line="78" id="lnk54"><path d="M101.89,768.02 C136.92,716.44 199.15,633.78 269.82,580.8 C305.47,554.08 345.4141,534.8453 381.1241,520.2853" fill="none" id="User-to-UC_Delete" style="stroke:#181818;stroke-width:1;"/><polygon fill="#181818" points="386.68,518.02,376.8359,517.714,382.0501,519.9078,379.8563,525.1219,386.68,518.02" style="stroke:#181818;stroke-width:1;"/></g><!--link User to UC_PWA--><g class="link" data-entity-1="ent0003" data-entity-2="ent0041" data-link-type="dependency" data-source-line="79" id="lnk55"><path d="M126.22,778.24 C139.12,769.76 152.89,760.86 165.82,752.8 C211.31,724.47 222.1,716.17 269.82,691.8 C315.27,668.59 363.6987,647.8067 399.6387,633.0667" fill="none" id="User-to-UC_PWA" style="stroke:#181818;stroke-width:1;"/><polygon fill="#181818" points="405.19,630.79,395.3453,630.5043,400.5639,632.6873,398.3809,637.9059,405.19,630.79" style="stroke:#181818;stroke-width:1;"/></g><!--link User to UC_EN--><g class="link" data-entity-1="ent0003" data-entity-2="ent0043" data-link-type="dependency" data-source-line="80" id="lnk56"><path d="M126.18,814.8 C187.54,814.8 282.24,814.8 354.07,814.8" fill="none" id="User-to-UC_EN" style="stroke:#181818;stroke-width:1;"/><polygon fill="#181818" points="360.07,814.8,351.07,810.8,355.07,814.8,351.07,818.8,360.07,814.8" style="stroke:#181818;stroke-width:1;"/></g><!--link User to UC_Lang--><g class="link" data-entity-1="ent0003" data-entity-2="ent0044" data-link-type="dependency" data-source-line="81" id="lnk57"><path d="M125.87,799.18 C138.91,795.59 152.83,791.92 165.82,788.8 C237.05,771.7 313.3856,756.4407 370.0856,745.6607" fill="none" id="User-to-UC_Lang" style="stroke:#181818;stroke-width:1;"/><polygon fill="#181818" points="375.98,744.54,366.3913,742.2914,371.068,745.4739,367.8855,750.1506,375.98,744.54" style="stroke:#181818;stroke-width:1;"/></g><!--link Coach to UC_Export--><g class="link" data-entity-1="ent0005" data-entity-2="ent0038" data-link-type="dependency" data-source-line="83" id="lnk58"><path d="M128.19,414.8 C186.13,414.8 271.54,414.8 341.34,414.8" fill="none" id="Coach-to-UC_Export" style="stroke:#181818;stroke-width:1;"/><polygon fill="#181818" points="347.34,414.8,338.34,410.8,342.34,414.8,338.34,418.8,347.34,414.8" style="stroke:#181818;stroke-width:1;"/><text fill="#000000" font-family="sans-serif" font-size="13" lengthAdjust="spacing" textLength="102.1973" x="166.82" y="410.8669">(future sharing)</text></g><!--link UC_Register to UC_ValidateCred--><g class="link" data-entity-1="ent0008" data-entity-2="ent0011" data-link-type="dependency" data-source-line="86" id="lnk59"><path d="M505.2,156.68 C531.91,164.02 563.87,173.51 592.03,183.8 C614.62,192.06 618.69,198.1 641.48,205.8 C687.89,221.48 735.9245,232.8843 777.0045,241.3843" fill="none" id="UC_Register-to-UC_ValidateCred" style="stroke:#181818;stroke-width:1;stroke-dasharray:7,7;"/><polygon fill="#181818" points="782.88,242.6,774.8772,236.8594,777.9837,241.5869,773.2562,244.6934,782.88,242.6" style="stroke:#181818;stroke-width:1;"/><text fill="#000000" font-family="sans-serif" font-size="13" lengthAdjust="spacing" textLength="63.0068" x="642.48" y="201.8669">&#171;include&#187;</text></g><!--link UC_Register to UC_SecureAuth--><g class="link" data-entity-1="ent0008" data-entity-2="ent0012" data-link-type="dependency" data-source-line="87" id="lnk60"><path d="M519.73,142.34 C580.52,142.8 662.2402,143.4151 731.7002,143.9351" fill="none" id="UC_Register-to-UC_SecureAuth" style="stroke:#181818;stroke-width:1;stroke-dasharray:7,7;"/><polygon fill="#181818" points="737.7,143.98,728.7302,139.9127,732.7001,143.9426,728.6703,147.9125,737.7,143.98" style="stroke:#181818;stroke-width:1;"/><text fill="#000000" font-family="sans-serif" font-size="13" lengthAdjust="spacing" textLength="63.0068" x="642.48" y="139.8669">&#171;include&#187;</text></g><!--link UC_Login to UC_ValidateCred--><g class="link" data-entity-1="ent0009" data-entity-2="ent0011" data-link-type="dependency" data-source-line="88" id="lnk61"><path d="M472.06,225.32 C520.52,243.75 624.26,282.79 641.48,285.8 C669.94,290.77 677.76,288.91 706.48,285.8 C735.59,282.65 761.6702,277.359 787.8002,270.999" fill="none" id="UC_Login-to-UC_ValidateCred" style="stroke:#181818;stroke-width:1;stroke-dasharray:7,7;"/><polygon fill="#181818" points="793.63,269.58,783.9393,267.8219,788.7718,270.7625,785.8313,275.595,793.63,269.58" style="stroke:#181818;stroke-width:1;"/><text fill="#000000" font-family="sans-serif" font-size="13" lengthAdjust="spacing" textLength="63.0068" x="642.48" y="281.8669">&#171;include&#187;</text></g><!--link UC_Login to UC_SecureAuth--><g class="link" data-entity-1="ent0009" data-entity-2="ent0012" data-link-type="dependency" data-source-line="89" id="lnk62"><path d="M477.27,210.46 C536.43,199.98 663.9219,177.3964 753.4719,161.5364" fill="none" id="UC_Login-to-UC_SecureAuth" style="stroke:#181818;stroke-width:1;stroke-dasharray:7,7;"/><polygon fill="#181818" points="759.38,160.49,749.8203,158.1208,754.4566,161.362,751.2155,165.9982,759.38,160.49" style="stroke:#181818;stroke-width:1;"/><text fill="#000000" font-family="sans-serif" font-size="13" lengthAdjust="spacing" textLength="63.0068" x="642.48" y="168.8669">&#171;include&#187;</text></g><!--link UC_Checkin to UC_Mood--><g class="link" data-entity-1="ent0014" data-entity-2="ent0018" data-link-type="dependency" data-source-line="91" id="lnk63"><path d="M910.82,1294.67 C936.26,1286.42 966.16,1276.92 993.35,1268.8 C1049.77,1251.95 1109.4336,1235.6496 1151.9636,1224.2796" fill="none" id="UC_Checkin-to-UC_Mood" style="stroke:#181818;stroke-width:1;stroke-dasharray:7,7;"/><polygon fill="#181818" points="1157.76,1222.73,1148.0323,1221.1901,1152.9296,1224.0214,1150.0984,1228.9187,1157.76,1222.73" style="stroke:#181818;stroke-width:1;"/><text fill="#000000" font-family="sans-serif" font-size="13" lengthAdjust="spacing" textLength="63.0068" x="994.35" y="1246.8669">&#171;include&#187;</text></g><!--link UC_Checkin to UC_Energy--><g class="link" data-entity-1="ent0014" data-entity-2="ent0019" data-link-type="dependency" data-source-line="92" id="lnk64"><path d="M884.41,1291.2 C929.54,1261.23 1011.87,1209.61 1088.35,1177.8 C1107.98,1169.64 1124.3386,1163.8083 1143.8186,1157.5383" fill="none" id="UC_Checkin-to-UC_Energy" style="stroke:#181818;stroke-width:1;stroke-dasharray:7,7;"/><polygon fill="#181818" points="1149.53,1155.7,1139.7373,1154.6499,1144.7705,1157.2319,1142.1884,1162.2651,1149.53,1155.7" style="stroke:#181818;stroke-width:1;"/><text fill="#000000" font-family="sans-serif" font-size="13" lengthAdjust="spacing" textLength="63.0068" x="994.35" y="1189.8669">&#171;include&#187;</text></g><!--link UC_Checkin to UC_Stress--><g class="link" data-entity-1="ent0014" data-entity-2="ent0020" data-link-type="dependency" data-source-line="93" id="lnk65"><path d="M869.59,1290.17 C907.03,1245.15 993.3,1149.88 1088.35,1102.8 C1106.7,1093.71 1122.0455,1087.9249 1141.0855,1082.0649" fill="none" id="UC_Checkin-to-UC_Stress" style="stroke:#181818;stroke-width:1;stroke-dasharray:7,7;"/><polygon fill="#181818" points="1146.82,1080.3,1137.0416,1079.1244,1142.0412,1081.7708,1139.3948,1086.7704,1146.82,1080.3" style="stroke:#181818;stroke-width:1;"/><text fill="#000000" font-family="sans-serif" font-size="13" lengthAdjust="spacing" textLength="63.0068" x="994.35" y="1115.8669">&#171;include&#187;</text></g><!--link UC_Checkin to UC_Sleep--><g class="link" data-entity-1="ent0014" data-entity-2="ent0021" data-link-type="dependency" data-source-line="94" id="lnk66"><path d="M880.35,1338.66 C908.79,1360.46 952.83,1392.98 993.35,1417.8 C1033.87,1442.61 1044.56,1448.38 1088.35,1466.8 C1107.66,1474.93 1123.6501,1480.6569 1142.9201,1486.8769" fill="none" id="UC_Checkin-to-UC_Sleep" style="stroke:#181818;stroke-width:1;stroke-dasharray:7,7;"/><polygon fill="#181818" points="1148.63,1488.72,1141.2938,1482.1488,1143.8717,1487.1841,1138.8364,1489.762,1148.63,1488.72" style="stroke:#181818;stroke-width:1;"/><text fill="#000000" font-family="sans-serif" font-size="13" lengthAdjust="spacing" textLength="63.0068" x="994.35" y="1413.8669">&#171;include&#187;</text></g><!--link UC_Checkin to UC_ValidateCheckin--><g class="link" data-entity-1="ent0014" data-entity-2="ent0022" data-link-type="dependency" data-source-line="95" id="lnk67"><path d="M899.47,1336.59 C926.84,1348.19 961.64,1362.2 993.35,1372.8 C1041.56,1388.92 1091.3639,1402.1761 1133.1739,1412.4661" fill="none" id="UC_Checkin-to-UC_ValidateCheckin" style="stroke:#181818;stroke-width:1;stroke-dasharray:7,7;"/><polygon fill="#181818" points="1139,1413.9,1131.2167,1407.8651,1134.1449,1412.7051,1129.3049,1415.6333,1139,1413.9" style="stroke:#181818;stroke-width:1;"/><text fill="#000000" font-family="sans-serif" font-size="13" lengthAdjust="spacing" textLength="63.0068" x="994.35" y="1368.8669">&#171;include&#187;</text></g><!--link UC_Checkin to UC_CalcScore--><g class="link" data-entity-1="ent0014" data-entity-2="ent0023" data-link-type="dependency" data-source-line="96" id="lnk68"><path d="M926.65,1331.34 C948.14,1335.4 971.58,1339.3 993.35,1341.8 C1029.79,1345.99 1064.0036,1348.0715 1099.3736,1349.3015" fill="none" id="UC_Checkin-to-UC_CalcScore" style="stroke:#181818;stroke-width:1;stroke-dasharray:7,7;"/><polygon fill="#181818" points="1105.37,1349.51,1096.5145,1345.1996,1100.373,1349.3362,1096.2364,1353.1948,1105.37,1349.51" style="stroke:#181818;stroke-width:1;"/><text fill="#000000" font-family="sans-serif" font-size="13" lengthAdjust="spacing" textLength="63.0068" x="994.35" y="1337.8669">&#171;include&#187;</text></g><!--link UC_Checkin to UC_SaveCheckin--><g class="link" data-entity-1="ent0014" data-entity-2="ent0024" data-link-type="dependency" data-source-line="97" id="lnk69"><path d="M944.04,1304.93 C1006.93,1298.34 1081.8527,1290.4854 1136.3327,1284.7754" fill="none" id="UC_Checkin-to-UC_SaveCheckin" style="stroke:#181818;stroke-width:1;stroke-dasharray:7,7;"/><polygon fill="#181818" points="1142.3,1284.15,1132.9321,1281.1099,1137.3272,1284.6712,1133.766,1289.0664,1142.3,1284.15" style="stroke:#181818;stroke-width:1;"/><text fill="#000000" font-family="sans-serif" font-size="13" lengthAdjust="spacing" textLength="63.0068" x="994.35" y="1289.8669">&#171;include&#187;</text></g><!--link UC_Note to UC_Checkin--><g class="link" data-entity-1="ent0015" data-entity-2="ent0014" data-link-type="dependency" data-source-line="98" id="lnk70"><path d="M537.59,1314.8 C599.34,1314.8 675.28,1314.8 739.45,1314.8" fill="none" id="UC_Note-to-UC_Checkin" style="stroke:#181818;stroke-width:1;stroke-dasharray:7,7;"/><polygon fill="#181818" points="745.45,1314.8,736.45,1310.8,740.45,1314.8,736.45,1318.8,745.45,1314.8" style="stroke:#181818;stroke-width:1;"/><text fill="#000000" font-family="sans-serif" font-size="13" lengthAdjust="spacing" textLength="61.1851" x="643.48" y="1310.8669">&#171;extend&#187;</text></g><!--link UC_Dashboard to UC_Trends--><g class="link" data-entity-1="ent0026" data-entity-2="ent0027" data-link-type="dependency" data-source-line="100" id="lnk71"><path d="M495.92,1724.02 C553.34,1747.75 651.64,1788.14 736.48,1821.8 C754.4,1828.91 768.4112,1834.3727 786.1112,1841.1927" fill="none" id="UC_Dashboard-to-UC_Trends" style="stroke:#181818;stroke-width:1;stroke-dasharray:7,7;"/><polygon fill="#181818" points="791.71,1843.35,784.75,1836.3816,787.0444,1841.5523,781.8737,1843.8466,791.71,1843.35" style="stroke:#181818;stroke-width:1;"/><text fill="#000000" font-family="sans-serif" font-size="13" lengthAdjust="spacing" textLength="63.0068" x="642.48" y="1782.8669">&#171;include&#187;</text></g><!--link UC_Dashboard to UC_Averages--><g class="link" data-entity-1="ent0026" data-entity-2="ent0028" data-link-type="dependency" data-source-line="101" id="lnk72"><path d="M523,1718.94 C596.87,1733.69 702.246,1754.7258 773.506,1768.9458" fill="none" id="UC_Dashboard-to-UC_Averages" style="stroke:#181818;stroke-width:1;stroke-dasharray:7,7;"/><polygon fill="#181818" points="779.39,1770.12,771.3468,1764.4361,774.4867,1769.1415,769.7812,1772.2814,779.39,1770.12" style="stroke:#181818;stroke-width:1;"/><text fill="#000000" font-family="sans-serif" font-size="13" lengthAdjust="spacing" textLength="63.0068" x="642.48" y="1739.8669">&#171;include&#187;</text></g><!--link UC_Dashboard to UC_Correlations--><g class="link" data-entity-1="ent0026" data-entity-2="ent0029" data-link-type="dependency" data-source-line="102" id="lnk73"><path d="M548.02,1703.8 C605.29,1703.8 671.1,1703.8 730.09,1703.8" fill="none" id="UC_Dashboard-to-UC_Correlations" style="stroke:#181818;stroke-width:1;stroke-dasharray:7,7;"/><polygon fill="#181818" points="736.09,1703.8,727.09,1699.8,731.09,1703.8,727.09,1707.8,736.09,1703.8" style="stroke:#181818;stroke-width:1;"/><text fill="#000000" font-family="sans-serif" font-size="13" lengthAdjust="spacing" textLength="63.0068" x="642.48" y="1699.8669">&#171;include&#187;</text></g><!--link UC_Dashboard to UC_Explain--><g class="link" data-entity-1="ent0026" data-entity-2="ent0030" data-link-type="dependency" data-source-line="103" id="lnk74"><path d="M522.06,1688.47 C594.56,1673.64 697.8417,1652.5022 769.5217,1637.8422" fill="none" id="UC_Dashboard-to-UC_Explain" style="stroke:#181818;stroke-width:1;stroke-dasharray:7,7;"/><polygon fill="#181818" points="775.4,1636.64,765.781,1634.5245,770.5014,1637.6419,767.384,1642.3622,775.4,1636.64" style="stroke:#181818;stroke-width:1;"/><text fill="#000000" font-family="sans-serif" font-size="13" lengthAdjust="spacing" textLength="63.0068" x="642.48" y="1649.8669">&#171;include&#187;</text></g><!--link UC_ViewInsights to UC_GenerateInsights--><g class="link" data-entity-1="ent0032" data-entity-2="ent0036" data-link-type="dependency" data-source-line="105" id="lnk75"><path d="M913.83,937.34 C962.3,937.76 1024.2202,938.2781 1082.0402,938.7781" fill="none" id="UC_ViewInsights-to-UC_GenerateInsights" style="stroke:#181818;stroke-width:1;stroke-dasharray:7,7;"/><polygon fill="#181818" points="1088.04,938.83,1079.0749,934.7523,1083.0402,938.7868,1079.0057,942.752,1088.04,938.83" style="stroke:#181818;stroke-width:1;"/><text fill="#000000" font-family="sans-serif" font-size="13" lengthAdjust="spacing" textLength="63.0068" x="994.35" y="934.8669">&#171;include&#187;</text></g><!--link UC_GenerateInsights to UC_Rules--><g class="link" data-entity-1="ent0036" data-entity-2="ent0034" data-link-type="dependency" data-source-line="106" id="lnk76"><path d="M1319.4,939.8 C1359.21,939.8 1397.9,939.8 1437.89,939.8" fill="none" id="UC_GenerateInsights-to-UC_Rules" style="stroke:#181818;stroke-width:1;stroke-dasharray:7,7;"/><polygon fill="#181818" points="1443.89,939.8,1434.89,935.8,1438.89,939.8,1434.89,943.8,1443.89,939.8" style="stroke:#181818;stroke-width:1;"/><text fill="#000000" font-family="sans-serif" font-size="13" lengthAdjust="spacing" textLength="63.0068" x="1350.38" y="935.8669">&#171;include&#187;</text></g><!--link UC_Rules to UC_WeakSignals--><g class="link" data-entity-1="ent0034" data-entity-2="ent0035" data-link-type="dependency" data-source-line="107" id="lnk77"><path d="M1679.36,939.46 C1719.79,939.34 1758.71,939.2285 1797.63,939.1085" fill="none" id="UC_Rules-to-UC_WeakSignals" style="stroke:#181818;stroke-width:1;stroke-dasharray:7,7;"/><polygon fill="#181818" points="1803.63,939.09,1794.6177,935.1178,1798.63,939.1054,1794.6424,943.1177,1803.63,939.09" style="stroke:#181818;stroke-width:1;"/><text fill="#000000" font-family="sans-serif" font-size="13" lengthAdjust="spacing" textLength="63.0068" x="1709.92" y="935.8669">&#171;include&#187;</text></g><!--link UC_Reco to UC_ViewInsights--><g class="link" data-entity-1="ent0033" data-entity-2="ent0032" data-link-type="dependency" data-source-line="108" id="lnk78"><path d="M577.54,940.85 C646.78,939.81 722.7607,938.6799 778.1507,937.8499" fill="none" id="UC_Reco-to-UC_ViewInsights" style="stroke:#181818;stroke-width:1;stroke-dasharray:7,7;"/><polygon fill="#181818" points="784.15,937.76,775.0911,933.8953,779.1506,937.8349,775.2109,941.8944,784.15,937.76" style="stroke:#181818;stroke-width:1;"/><text fill="#000000" font-family="sans-serif" font-size="13" lengthAdjust="spacing" textLength="61.1851" x="643.48" y="935.8669">&#171;extend&#187;</text></g><!--SRC=[ZLPBRkGs4Dth58GNYRtmT2QpI10O1XfjnnaWunXkZxq94D1IMIAQJIaYPLi8iiq9SiAS98-aA56VXjshLl7LxrMnYfAU33CbgqLU69Q9cb8ZIfNedL0Lh_cULJpTyPosffN4x35NkQGauQafQtPqrP0slwlZUw4512T7Z6lcX07nLLCDmBen1IaZKcueyp1x4b3RLXlQ0xVXDMrRbR9BbGj57kbF0tPJyhHOtHLKyqeuxpytfgaxh3jDaZvKu3kJH-ol964X8tOKXOISsJTidQQaDJl-Sd_pySIY6NwDffHhQwOcnCvucfQDibvlAOTxwfB-klaZ2CPwlvOv4ofWy2NK750s9aBWAnbZxhaKcNMVrfJPeBdKGI6S8S1ihBMb5BmmFaeKaGkj6qBTTwHM6Yb3sYVXTImtiFNtYB0BBcJBxcfy2vM3i0UIKbdAjca9FmU8spQFUu7kSjffGUdkLDWepjYdxnX0fSfqxtvZpwSChRECbPKDdajcwDKmLHeAAjVuFs5Bq0jx2S5f6rnF5evSj0iQ8JPMe8nbtI96oRLXFo3sTWZn5tywgT26LxO9sRuiiu3yWl_BA59KvosJz4moe2-TR1clJMrJ6U6tJdO0BuagzcU3rZ1jhs25X_egv8ulFkkifQ9ik4mRQNMNcRRd2qnl-VFWhOyCmi79kElMA7gBvjNiWklYiUHrvZhj-tcdkIho7fy5V73J6rXG0vagGs2yDXg5jsLS-IgjFFbz_UyiKYzs7EtGuiYbHkJz_LnttmiQMkmhZ2YmL9DqjzFwziNxxvz_NJCDLoD2ZMtT4kz2P_HQIJ3WG7rZMTa2iv-LTdFVZrf7wgS3f0eFrV4rwjHdiQGaKE8S4yUlZ7A_1s5zTWgpjWAXQIrmfPyf6fzfERbKwwe2eOzKy6U1qLytaZJkZWqNbiZdnHzbPCH2naOko60Pe3fy1y9pj8SDuma1vGsjIbH7bdoW-G6uhOUDxLpPTh3z7lcT4HD04JdJ8Meu- -q5A5s82aFqwkBcTaOwIbQYclkMLG2wkHTVJ7yyJLCYqPcAJRMH-6-Fuq7lyRFuRXxMisYGZE6mmQlAAZk8DuA_2ss57UXR4FD3- -rwB3x-g4wnGhDstc9u2JZR63_eHUWKY3gZ9zv8qyTxUJsPFmNsEp5qUzx0x-GPO1SfJbnm2EzRB7SCRKnGeNOwSIyKTdfwFbhR8wbVr8bzf4GYkvbZKHXQiMnOCR4qR8rODioZgNxVFl51L_MH1L_4M6HBCjAw7YTXMKdSAsbib_t4q2b-Us2KOCEVMDu-grGs6QxTYbs-6ZVv8ixOXm_dqpS839sT2QzsVhw47juOSwpZ_NrcHz23DfEXJ05hz_BSt0Jar_6RCB-5tuQvcVuMQh9mtyJtE_Pj_yE6dMFj2wet6O785RpZSDY-7TBlmRcr6J0im7T0untt3dYtsHOg7b-YW9xEvhc36QBJT5jbeQ-TkCD4UsFf1gHbN-Guj9Zc_m40]--></g></svg>